<svg width="340" height="230" viewBox="0 0 340 230" fill="none" xmlns="http://www.w3.org/2000/svg">
<g clip-path="url(#clip0_33_6)">
<path d="M22.8812 173.318C21.2667 173.318 19.6489 173.384 18.069 173.519L17.839 173.538C7.35946 174.465 -0.305873 179.841 0.00938018 186.044L0.0703259 187.165C0.110517 187.874 0.153338 188.637 0.188585 189.482C0.207675 189.899 0.776611 190.219 1.48454 190.219H259.257C277.431 190.109 295.539 189.97 313.076 189.807C316.365 189.813 319.652 189.643 322.922 189.296C327.796 188.719 331.178 187.576 333.264 185.8H333.265C335.859 183.598 335.94 180.825 335.784 177.692C335.464 171.366 335.147 164.72 334.831 158.095C334.552 152.256 334.274 146.432 333.996 140.857C333.824 137.548 333.441 134.627 330.496 132.395C327.303 129.981 321.48 128.758 313.189 128.758C313.088 128.758 312.989 128.758 312.888 128.758C286.903 128.851 261.156 137.788 248.82 150.998C247.4 152.519 246.076 154.148 244.796 155.723C242.904 158.05 240.949 160.455 238.615 162.607C237.352 163.787 235.985 164.853 234.532 165.79C234.432 165.859 234.318 165.934 234.196 166.004C233.919 166.185 233.629 166.359 233.346 166.514C231.692 167.47 229.948 168.264 228.14 168.882L227.957 168.944C227.82 168.993 227.671 169.042 227.522 169.087C226.478 169.422 225.393 169.712 224.306 169.946C219.604 170.983 214.257 171.232 208.415 170.684C203.049 170.168 197.753 169.089 192.614 167.464C187.204 165.753 182.14 163.621 177.243 161.559C175.092 160.653 172.867 159.716 170.645 158.829C170.227 158.662 169.816 158.498 169.399 158.335C166.686 157.277 164.225 156.403 161.878 155.664C156.062 153.825 150.042 152.709 143.953 152.343C137.49 151.989 131.795 152.657 127.03 154.322C125.716 154.78 124.437 155.331 123.202 155.972C117.558 158.904 114.078 163.231 110.713 167.416C106.528 172.621 102.199 178.004 93.653 180.794C83.791 184.017 69.3959 182.678 59.2115 180.35C56.0095 179.618 52.8115 178.776 49.7185 177.961C48.4694 177.631 47.2193 177.305 45.9684 176.98C43.5103 176.345 41.4985 175.859 39.6372 175.448L39.0486 175.317C38.7211 175.246 38.3933 175.175 38.0596 175.107C35.8489 174.643 33.7903 174.277 31.7631 173.99L31.2834 173.92C30.3218 173.793 29.4228 173.688 28.5407 173.599L28.1885 173.564C26.4607 173.4 24.6726 173.318 22.8812 173.318Z" fill="#F2F2F2"/>
<path d="M289.433 180.241C296.686 173.703 307.475 170.415 316.524 174.081C307.241 179.237 300.08 187.51 296.309 197.438C294.868 201.273 293.665 205.687 290.121 207.74C287.916 209.017 285.173 209.08 282.701 208.463C280.229 207.846 277.963 206.61 275.728 205.387L275.092 205.372C277.947 196.032 282.18 186.779 289.433 180.241Z" fill="#E6E6E6"/>
<path d="M316.474 174.28C308.459 175.316 300.974 178.852 295.082 184.385C293.793 185.554 292.696 186.919 291.831 188.429C291.036 189.928 290.657 191.612 290.733 193.307C290.772 194.888 290.996 196.501 290.65 198.065C290.461 198.863 290.105 199.611 289.607 200.262C289.108 200.913 288.478 201.451 287.757 201.841C285.986 202.859 283.955 203.18 281.958 203.425C279.74 203.697 277.432 203.944 275.513 205.188C275.28 205.339 275.06 204.969 275.292 204.819C278.632 202.654 282.858 203.442 286.449 201.997C288.125 201.323 289.608 200.139 290.132 198.35C290.591 196.786 290.363 195.122 290.309 193.521C290.211 191.869 290.518 190.218 291.205 188.712C291.99 187.162 293.033 185.757 294.289 184.558C297.073 181.812 300.273 179.521 303.769 177.769C307.748 175.748 312.044 174.422 316.47 173.849C316.744 173.814 316.746 174.245 316.474 174.28Z" fill="white"/>
<path d="M296.875 182.492C296.081 181.377 295.709 180.016 295.825 178.652C295.942 177.289 296.539 176.011 297.51 175.047C297.708 174.852 298.019 175.15 297.821 175.344C296.915 176.24 296.359 177.431 296.253 178.701C296.147 179.971 296.499 181.237 297.244 182.271C297.406 182.496 297.035 182.715 296.875 182.492Z" fill="white"/>
<path d="M290.608 192.507C293.362 192.995 296.199 192.427 298.553 190.916C298.786 190.766 299.007 191.136 298.774 191.285C296.321 192.854 293.368 193.439 290.503 192.925C290.23 192.875 290.336 192.458 290.608 192.507Z" fill="white"/>
<path d="M307.783 176.317C308 176.813 308.337 177.246 308.763 177.579C309.19 177.912 309.692 178.134 310.225 178.225C310.499 178.27 310.392 178.687 310.12 178.642C309.531 178.539 308.977 178.293 308.505 177.927C308.033 177.56 307.659 177.083 307.413 176.538C307.386 176.489 307.379 176.43 307.392 176.376C307.406 176.321 307.44 176.273 307.488 176.243C307.537 176.214 307.596 176.205 307.651 176.219C307.706 176.233 307.754 176.269 307.783 176.317Z" fill="white"/>
<path d="M326.489 205.611C326.318 205.587 326.146 205.563 325.972 205.542C323.663 205.236 321.333 205.117 319.005 205.188C318.825 205.191 318.643 205.196 318.463 205.204C312.856 205.435 307.341 206.704 302.197 208.949C300.151 209.844 298.177 210.894 296.29 212.088C293.684 213.739 290.991 215.735 288.078 216.408C287.775 216.482 287.468 216.537 287.158 216.572L275.124 206.149C275.108 206.112 275.09 206.077 275.075 206.039L274.575 205.645C274.668 205.577 274.766 205.508 274.859 205.439C274.913 205.4 274.969 205.362 275.023 205.322C275.06 205.296 275.097 205.27 275.128 205.245C275.14 205.236 275.153 205.228 275.163 205.222C275.194 205.196 275.226 205.176 275.256 205.153C275.802 204.766 276.352 204.383 276.906 204.002C276.908 203.999 276.908 203.999 276.913 203.999C281.104 201.058 285.629 198.625 290.393 196.75C290.536 196.696 290.681 196.64 290.83 196.59C292.975 195.792 295.183 195.171 297.429 194.733C298.66 194.497 299.903 194.323 301.151 194.213C304.378 193.934 307.628 194.164 310.783 194.895C317.073 196.354 322.826 199.809 326.233 205.196C326.32 205.334 326.405 205.47 326.489 205.611Z" fill="#E6E6E6"/>
<path d="M326.33 205.74C319.307 201.74 311.203 200.056 303.168 200.926C301.435 201.082 299.737 201.511 298.138 202.196C296.601 202.914 295.285 204.031 294.326 205.43C293.405 206.716 292.612 208.139 291.395 209.179C290.764 209.702 290.03 210.086 289.24 210.305C288.45 210.524 287.623 210.574 286.813 210.452C284.786 210.198 282.971 209.231 281.229 208.224C279.294 207.105 277.303 205.913 275.022 205.75C274.745 205.731 274.792 205.303 275.068 205.322C279.037 205.605 281.938 208.779 285.674 209.789C287.418 210.259 289.314 210.208 290.81 209.095C292.118 208.122 292.937 206.656 293.858 205.346C294.774 203.967 296.013 202.834 297.468 202.045C299.027 201.281 300.705 200.787 302.43 200.586C306.307 200.07 310.24 200.168 314.086 200.875C318.48 201.657 322.707 203.185 326.586 205.394C326.826 205.531 326.568 205.876 326.33 205.74Z" fill="white"/>
<path d="M305.739 200.493C305.776 199.125 306.298 197.815 307.212 196.796C308.125 195.777 309.372 195.116 310.727 194.932C311.002 194.896 311.071 195.32 310.796 195.357C309.534 195.526 308.373 196.142 307.524 197.092C306.675 198.043 306.193 199.265 306.166 200.54C306.16 200.817 305.732 200.769 305.739 200.493Z" fill="white"/>
<path d="M294.707 204.716C296.612 206.765 299.219 208.019 302.008 208.23C302.285 208.251 302.238 208.679 301.962 208.658C299.06 208.433 296.349 207.122 294.371 204.986C294.183 204.782 294.519 204.513 294.707 204.716Z" fill="white"/>
<path d="M318.165 202.133C318.04 202.659 318.048 203.208 318.188 203.731C318.328 204.254 318.595 204.733 318.967 205.127C319.157 205.328 318.821 205.596 318.631 205.397C318.223 204.96 317.929 204.43 317.773 203.853C317.617 203.276 317.604 202.669 317.737 202.087C317.745 202.031 317.774 201.98 317.818 201.944C317.862 201.909 317.918 201.891 317.974 201.896C318.03 201.902 318.082 201.931 318.118 201.975C318.154 202.02 318.17 202.076 318.165 202.133Z" fill="white"/>
<path d="M99.5586 186.743C105.498 177.732 116.122 171.214 126.821 172.616C118.326 180.713 112.968 191.555 111.696 203.223C111.221 207.725 111.162 212.781 107.943 215.963C105.94 217.942 103.024 218.772 100.208 218.801C97.3924 218.829 94.6249 218.138 91.8941 217.451L91.21 217.613C91.6659 206.829 93.6193 195.754 99.5586 186.743Z" fill="#E6E6E6"/>
<path d="M126.822 172.843C118.538 176.181 111.516 182.046 106.754 189.604C105.7 191.212 104.906 192.977 104.401 194.833C103.968 196.657 104.031 198.564 104.583 200.355C105.065 202.036 105.753 203.699 105.817 205.468C105.837 206.374 105.665 207.273 105.313 208.108C104.961 208.943 104.436 209.694 103.774 210.311C102.163 211.893 100.08 212.802 98.0117 213.619C95.7156 214.527 93.3162 215.434 91.6092 217.299C91.4023 217.525 91.0639 217.191 91.2704 216.965C94.2404 213.72 98.9794 213.387 102.418 210.842C104.023 209.655 105.28 207.977 105.344 205.917C105.399 204.116 104.692 202.4 104.189 200.703C103.625 198.963 103.494 197.112 103.81 195.31C104.218 193.434 104.943 191.642 105.953 190.009C108.168 186.297 110.952 182.957 114.204 180.11C117.898 176.841 122.123 174.227 126.698 172.383C126.981 172.269 127.103 172.729 126.822 172.843Z" fill="white"/>
<path d="M108.144 187.08C106.985 186.108 106.208 184.756 105.954 183.265C105.699 181.774 105.982 180.241 106.753 178.94C106.91 178.677 107.326 178.909 107.169 179.172C106.449 180.382 106.185 181.81 106.425 183.198C106.665 184.586 107.393 185.843 108.478 186.741C108.713 186.936 108.378 187.274 108.144 187.08Z" fill="white"/>
<path d="M104.227 199.535C107.308 199.291 110.185 197.894 112.282 195.622C112.49 195.397 112.828 195.731 112.621 195.956C110.434 198.316 107.438 199.764 104.23 200.011C103.925 200.035 103.923 199.559 104.227 199.535Z" fill="white"/>
<path d="M118.094 177.44C118.464 177.91 118.945 178.28 119.493 178.517C120.042 178.755 120.641 178.852 121.236 178.801C121.541 178.774 121.543 179.249 121.24 179.276C120.581 179.33 119.92 179.222 119.314 178.961C118.707 178.7 118.173 178.294 117.76 177.779C117.717 177.734 117.692 177.674 117.692 177.612C117.692 177.549 117.715 177.489 117.757 177.443C117.802 177.398 117.862 177.373 117.925 177.372C117.988 177.372 118.048 177.396 118.094 177.44Z" fill="white"/>
<path d="M146.248 203.565C146.057 203.587 145.867 203.61 145.675 203.636C143.121 203.95 140.596 204.472 138.126 205.196C137.934 205.249 137.74 205.305 137.55 205.363C131.617 207.17 126.072 210.063 121.195 213.895C119.256 215.422 117.436 217.094 115.75 218.897C113.422 221.387 111.096 224.272 108.169 225.802C107.865 225.965 107.551 226.11 107.23 226.234L91.4602 218.435C91.4332 218.399 91.4043 218.367 91.3772 218.331L90.7333 218.049C90.8138 217.95 90.8993 217.849 90.9798 217.75C91.0262 217.692 91.0761 217.636 91.1226 217.578C91.1546 217.54 91.1869 217.503 91.2136 217.467C91.2243 217.454 91.2351 217.441 91.2439 217.432C91.2707 217.396 91.2994 217.366 91.3244 217.333C91.801 216.767 92.2825 216.204 92.7688 215.643C92.7706 215.639 92.7706 215.639 92.7759 215.637C96.4922 211.371 100.597 207.377 105.178 204.133C105.316 204.036 105.455 203.935 105.6 203.841C107.673 202.39 109.861 201.111 112.142 200.017C113.393 199.422 114.673 198.891 115.978 198.426C119.351 197.229 122.892 196.571 126.469 196.475C133.602 196.285 140.715 198.379 145.858 203.193C145.99 203.316 146.118 203.438 146.248 203.565Z" fill="#E6E6E6"/>
<path d="M146.113 203.747C137.489 201.424 128.353 201.878 120.002 205.044C118.192 205.694 116.495 206.625 114.975 207.803C113.532 208.998 112.434 210.559 111.797 212.322C111.17 213.954 110.718 215.696 109.706 217.147C109.176 217.882 108.497 218.497 107.714 218.952C106.93 219.406 106.06 219.689 105.159 219.784C102.92 220.076 100.71 219.547 98.5667 218.955C96.1869 218.297 93.7254 217.576 91.24 218.037C90.9389 218.093 90.8698 217.622 91.1705 217.566C95.4948 216.764 99.4794 219.352 103.757 219.391C105.753 219.41 107.766 218.826 109.057 217.22C110.185 215.816 110.653 214.02 111.274 212.362C111.87 210.633 112.88 209.076 114.216 207.828C115.672 206.576 117.329 205.581 119.118 204.886C123.121 203.256 127.354 202.266 131.664 201.951C136.581 201.565 141.528 202.023 146.291 203.306C146.585 203.386 146.406 203.826 146.113 203.747Z" fill="white"/>
<path d="M122.631 203.866C122.29 202.393 122.484 200.846 123.178 199.502C123.872 198.158 125.021 197.104 126.42 196.53C126.703 196.415 126.896 196.85 126.612 196.965C125.308 197.498 124.238 198.479 123.594 199.732C122.951 200.985 122.776 202.426 123.101 203.797C123.172 204.095 122.701 204.162 122.631 203.866Z" fill="white"/>
<path d="M112.006 211.453C114.614 213.113 117.751 213.73 120.793 213.179C121.094 213.125 121.164 213.595 120.863 213.65C117.696 214.217 114.432 213.569 111.723 211.834C111.465 211.669 111.75 211.288 112.006 211.453Z" fill="white"/>
<path d="M136.377 202.162C136.39 202.76 136.551 203.345 136.846 203.865C137.141 204.385 137.561 204.823 138.067 205.141C138.327 205.303 138.042 205.684 137.784 205.523C137.226 205.169 136.763 204.684 136.436 204.11C136.109 203.537 135.927 202.892 135.906 202.231C135.899 202.169 135.916 202.107 135.953 202.057C135.99 202.007 136.045 201.972 136.107 201.961C136.169 201.952 136.233 201.969 136.283 202.006C136.334 202.044 136.367 202.1 136.377 202.162Z" fill="white"/>
<path d="M141.828 119.185C142.222 118.792 142.525 118.319 142.717 117.796C142.908 117.274 142.982 116.717 142.935 116.162C142.887 115.608 142.718 115.072 142.441 114.59C142.164 114.108 141.784 113.693 141.329 113.374L147.536 83.3243L140.839 85.4375L135.845 114.508C135.36 115.308 135.185 116.259 135.353 117.18C135.522 118.101 136.022 118.928 136.76 119.504C137.497 120.081 138.421 120.367 139.355 120.308C140.289 120.249 141.169 119.849 141.828 119.185Z" fill="#FFB6B6"/>
<path d="M156.175 38.8617L152.027 35.7294C152.027 35.7294 148.368 35.4702 147.719 42.0715C147.071 48.6727 143.013 74.0083 143.013 74.0083L136.666 103.417L145.453 105.346L152.251 73.6091L159.057 51.7136L156.175 38.8617Z" fill="#E6E6E6"/>
<path d="M153.015 93.2783L133.116 77.8015C132.806 77.5599 132.605 77.2051 132.556 76.8151C132.507 76.4251 132.615 76.0316 132.856 75.7211L146.395 58.3038C146.636 57.9937 146.991 57.7922 147.381 57.7434C147.771 57.6946 148.164 57.8025 148.475 58.0434L168.373 73.5202C168.683 73.7618 168.885 74.1166 168.934 74.5066C168.982 74.8966 168.875 75.2901 168.634 75.6006L155.095 93.0179C154.853 93.328 154.499 93.5295 154.109 93.5783C153.719 93.6271 153.325 93.5192 153.015 93.2783Z" fill="#3F3D56"/>
<path d="M152.906 91.6768L134.695 77.5129C134.42 77.2984 134.241 76.9834 134.198 76.6371C134.154 76.2908 134.25 75.9414 134.464 75.6657L146.737 59.8761C146.952 59.6009 147.267 59.4219 147.613 59.3786C147.959 59.3353 148.308 59.4311 148.584 59.645L166.795 73.8089C167.07 74.0234 167.249 74.3384 167.292 74.6847C167.335 75.031 167.24 75.3803 167.026 75.6561L154.752 91.4456C154.538 91.7209 154.223 91.8998 153.877 91.9431C153.531 91.9865 153.181 91.8907 152.906 91.6768Z" fill="white"/>
<path d="M137.082 77.1112C137.014 77.0576 136.969 76.9789 136.958 76.8923C136.947 76.8057 136.971 76.7184 137.025 76.6495L143.216 68.6841C143.27 68.6152 143.349 68.5704 143.435 68.5596C143.478 68.5542 143.522 68.5573 143.563 68.5688C143.605 68.5802 143.644 68.5998 143.678 68.6263C143.712 68.6528 143.741 68.6858 143.762 68.7234C143.783 68.7609 143.797 68.8023 143.802 68.8452C143.808 68.8881 143.805 68.9316 143.793 68.9733C143.782 69.0149 143.762 69.054 143.736 69.0881L137.544 77.0534C137.49 77.1222 137.412 77.167 137.325 77.1778C137.239 77.1886 137.151 77.1647 137.082 77.1112Z" fill="#E4E4E4"/>
<path d="M138.109 77.9094C138.04 77.8558 137.995 77.777 137.984 77.6905C137.973 77.6039 137.997 77.5165 138.051 77.4476L144.242 69.4822C144.296 69.4133 144.375 69.3685 144.461 69.3577C144.548 69.3469 144.635 69.3709 144.704 69.4245C144.773 69.478 144.818 69.5568 144.829 69.6434C144.839 69.73 144.815 69.8173 144.762 69.8862L138.57 77.8516C138.517 77.9204 138.438 77.9652 138.351 77.976C138.265 77.9868 138.177 77.9629 138.109 77.9094Z" fill="#E4E4E4"/>
<path d="M142.643 74.195C142.574 74.1414 142.529 74.0626 142.518 73.976C142.507 73.8895 142.531 73.8021 142.585 73.7332L145.269 70.2804C145.295 70.2462 145.328 70.2176 145.366 70.1961C145.403 70.1747 145.445 70.1609 145.488 70.1555C145.531 70.1501 145.574 70.1532 145.616 70.1646C145.657 70.1761 145.697 70.1956 145.731 70.2222C145.765 70.2487 145.793 70.2818 145.815 70.3194C145.836 70.357 145.85 70.3985 145.855 70.4414C145.861 70.4843 145.857 70.5279 145.846 70.5696C145.834 70.6113 145.815 70.6503 145.788 70.6844L143.104 74.1372C143.051 74.206 142.972 74.2508 142.885 74.2616C142.799 74.2724 142.711 74.2485 142.643 74.195Z" fill="#E4E4E4"/>
<path d="M144.026 80.9707C143.957 80.9171 143.913 80.8383 143.902 80.7517C143.891 80.6652 143.915 80.5778 143.968 80.5089L153.743 67.9341C153.77 67.9 153.803 67.8714 153.84 67.85C153.878 67.8287 153.919 67.8149 153.962 67.8096C154.005 67.8042 154.048 67.8073 154.09 67.8188C154.132 67.8302 154.171 67.8498 154.205 67.8763C154.239 67.9028 154.267 67.9358 154.289 67.9734C154.31 68.0109 154.324 68.0523 154.329 68.0952C154.335 68.1381 154.331 68.1816 154.32 68.2233C154.309 68.2649 154.289 68.3039 154.262 68.3381L144.488 80.9129C144.434 80.9817 144.355 81.0264 144.269 81.0373C144.182 81.0481 144.095 81.0242 144.026 80.9707Z" fill="#E4E4E4"/>
<path d="M145.052 81.7689C144.984 81.7153 144.939 81.6365 144.928 81.5499C144.917 81.4634 144.941 81.376 144.995 81.3071L154.769 68.7322C154.796 68.6981 154.829 68.6696 154.866 68.6482C154.904 68.6268 154.945 68.6131 154.988 68.6077C155.031 68.6023 155.074 68.6055 155.116 68.6169C155.158 68.6284 155.197 68.6479 155.231 68.6745C155.265 68.701 155.294 68.734 155.315 68.7715C155.336 68.8091 155.35 68.8505 155.355 68.8934C155.361 68.9363 155.358 68.9798 155.346 69.0215C155.335 69.0631 155.315 69.1021 155.289 69.1362L145.514 81.7111C145.46 81.7799 145.382 81.8246 145.295 81.8355C145.209 81.8463 145.121 81.8224 145.052 81.7689Z" fill="#E4E4E4"/>
<path d="M147.382 83.5807C147.313 83.527 147.268 83.4483 147.257 83.3617C147.247 83.2752 147.271 83.1878 147.324 83.1189L157.099 70.5441C157.125 70.5099 157.158 70.4814 157.196 70.46C157.233 70.4387 157.275 70.4249 157.318 70.4195C157.36 70.4142 157.404 70.4173 157.446 70.4288C157.487 70.4402 157.526 70.4598 157.56 70.4863C157.594 70.5128 157.623 70.5458 157.644 70.5834C157.666 70.6209 157.679 70.6623 157.685 70.7052C157.69 70.7481 157.687 70.7916 157.676 70.8333C157.664 70.8749 157.645 70.9139 157.618 70.948L147.843 83.5229C147.79 83.5917 147.711 83.6364 147.625 83.6473C147.538 83.6581 147.451 83.6341 147.382 83.5807Z" fill="#E4E4E4"/>
<path d="M148.408 84.3788C148.339 84.3252 148.294 84.2464 148.284 84.1599C148.273 84.0733 148.297 83.9859 148.35 83.917L158.125 71.3422C158.151 71.3081 158.184 71.2795 158.222 71.2581C158.26 71.2368 158.301 71.223 158.344 71.2176C158.387 71.2123 158.43 71.2154 158.472 71.2269C158.513 71.2383 158.552 71.2579 158.587 71.2844C158.621 71.3109 158.649 71.3439 158.671 71.3815C158.692 71.419 158.706 71.4604 158.711 71.5033C158.716 71.5462 158.713 71.5897 158.702 71.6314C158.69 71.6731 158.671 71.7121 158.644 71.7462L148.87 84.321C148.816 84.3898 148.737 84.4346 148.651 84.4454C148.564 84.4562 148.477 84.4323 148.408 84.3788Z" fill="#E4E4E4"/>
<path d="M150.737 86.1907C150.669 86.137 150.624 86.0583 150.613 85.9717C150.602 85.8851 150.626 85.7978 150.68 85.7289L160.454 73.1541C160.481 73.1199 160.514 73.0914 160.551 73.07C160.589 73.0487 160.63 73.0349 160.673 73.0295C160.716 73.0242 160.76 73.0273 160.801 73.0387C160.843 73.0502 160.882 73.0697 160.916 73.0963C160.95 73.1228 160.979 73.1558 161 73.1933C161.021 73.2309 161.035 73.2723 161.041 73.3152C161.046 73.3581 161.043 73.4016 161.031 73.4432C161.02 73.4849 161 73.5239 160.974 73.558L151.199 86.1329C151.145 86.2017 151.067 86.2464 150.98 86.2573C150.894 86.2681 150.806 86.2441 150.737 86.1907Z" fill="#E4E4E4"/>
<path d="M151.764 86.9888C151.695 86.9351 151.65 86.8564 151.639 86.7698C151.628 86.6833 151.652 86.5959 151.706 86.527L161.481 73.9522C161.534 73.8836 161.613 73.8391 161.699 73.8284C161.786 73.8177 161.873 73.8418 161.942 73.8952C162.01 73.9487 162.055 74.0272 162.066 74.1136C162.077 74.2 162.053 74.2873 162 74.3562L152.225 86.931C152.172 86.9998 152.093 87.0446 152.006 87.0554C151.92 87.0662 151.833 87.0423 151.764 86.9888Z" fill="#E4E4E4"/>
<path d="M135.427 101.593C135.501 101.593 135.562 101.532 135.562 101.457C135.562 101.383 135.501 101.322 135.427 101.322C135.352 101.322 135.292 101.383 135.292 101.457C135.292 101.532 135.352 101.593 135.427 101.593Z" fill="white"/>
<path d="M155.109 8.49426C154.634 11.0475 153.855 13.5347 152.788 15.9027C146.682 28.8242 164.072 24.6125 170.286 24.6125C177.081 24.6125 183.582 28.1864 182.589 12.3062C182.165 5.52294 177.081 0 170.286 0C164.482 0 156.323 2.58038 155.109 8.49426Z" fill="#2F2E41"/>
<path d="M176.62 198.006H170.831L168.076 175.671H176.62V198.006Z" fill="#FFB6B6"/>
<path d="M179.675 208.039H175.523L174.782 204.119L172.885 208.039H161.874C161.346 208.039 160.832 207.871 160.407 207.558C159.982 207.245 159.668 206.804 159.511 206.3C159.354 205.796 159.362 205.255 159.534 204.756C159.706 204.257 160.033 203.826 160.467 203.526L169.26 197.452V193.488L178.509 194.04L179.675 208.039Z" fill="#2F2E41"/>
<path d="M211.012 190.698L206.366 194.154L190.832 177.875L197.688 172.775L211.012 190.698Z" fill="#FFB6B6"/>
<path d="M219.449 196.926L216.118 199.404L213.184 196.7L214 200.979L205.164 207.551C204.741 207.866 204.228 208.037 203.7 208.04C203.172 208.043 202.657 207.877 202.231 207.566C201.804 207.255 201.488 206.816 201.328 206.313C201.168 205.81 201.174 205.269 201.343 204.769L204.776 194.646L202.411 191.465L210.162 186.388L219.449 196.926Z" fill="#2F2E41"/>
<path d="M157.66 95.2114L185.14 90.93L179.675 74.485H157.66V95.2114Z" fill="#FFB6B6"/>
<path d="M183.359 82.7675C183.359 82.7675 194.343 92.2597 189.275 119.32L183.088 145.834L199.945 175.107L191.374 179.784L170.601 150.904L161.096 128.601L156.068 89.5126L183.359 82.7675Z" fill="#2F2E41"/>
<path d="M166.335 134.957L165.674 145.191L167.608 175.497L177.209 178.804L179.028 147.753L166.335 134.957Z" fill="#2F2E41"/>
<path d="M163.383 28.0186L174.005 28.4331L178.239 35.4625L187.898 37.3486L182.132 66.5274L183.192 83.1357L173.575 83.077C166.643 83.0347 159.94 85.5536 154.752 90.1504L155.039 68.5917L150.902 52.4983L151.832 35.6234L159.602 34.6518L163.383 28.0186Z" fill="#E6E6E6"/>
<path d="M169.268 24.6094C174.789 24.6094 179.265 20.1322 179.265 14.6092C179.265 9.08626 174.789 4.60901 169.268 4.60901C163.747 4.60901 159.271 9.08626 159.271 14.6092C159.271 20.1322 163.747 24.6094 169.268 24.6094Z" fill="#FFB6B6"/>
<path d="M162.479 4.41538C164.231 3.34709 166.237 2.7692 168.289 2.74215C170.34 2.71509 172.362 3.23987 174.141 4.26159C175.92 5.28332 177.393 6.76447 178.404 8.55018C179.415 10.3359 179.928 12.3606 179.889 14.4125C174.795 15.6919 169.444 16.6709 164.011 14.7185L162.728 11.5777L161.972 14.7208C160.317 15.3973 158.659 15.9696 157 14.7143C156.932 12.6682 157.403 10.6401 158.364 8.83275C159.326 7.02544 160.744 5.50223 162.479 4.41538Z" fill="#2F2E41"/>
<path d="M186.049 103.297L187.396 115.531C187.49 115.837 187.679 116.104 187.936 116.293C188.193 116.483 188.504 116.586 188.823 116.585H195.035C195.355 116.586 195.666 116.483 195.922 116.293C196.179 116.104 196.369 115.837 196.462 115.531L197.579 106.154C197.901 106.312 198.256 106.392 198.615 106.386C198.973 106.38 199.326 106.289 199.642 106.12C199.959 105.951 200.231 105.71 200.437 105.415C200.642 105.121 200.774 104.782 200.823 104.426C200.872 104.071 200.835 103.708 200.717 103.37C200.598 103.031 200.401 102.725 200.142 102.477C199.882 102.229 199.567 102.047 199.223 101.945C198.879 101.842 198.516 101.823 198.163 101.888C198.024 101.724 197.85 101.592 197.655 101.501C197.459 101.411 197.246 101.364 197.031 101.365H187.476C187.242 101.365 187.012 101.419 186.803 101.525C186.595 101.63 186.414 101.783 186.275 101.971C186.136 102.159 186.043 102.377 186.004 102.607C185.965 102.838 185.98 103.074 186.049 103.297ZM197.774 105.52L198.457 103.297C198.537 103.041 198.544 102.767 198.48 102.507C198.509 102.505 198.537 102.498 198.566 102.498C198.996 102.498 199.407 102.669 199.711 102.972C200.015 103.276 200.185 103.688 200.185 104.117C200.185 104.547 200.015 104.959 199.711 105.262C199.407 105.566 198.996 105.737 198.566 105.737C198.288 105.735 198.015 105.66 197.774 105.52Z" fill="#F9A826"/>
<path d="M195.416 116.594C195.024 116.2 194.723 115.724 194.535 115.201C194.346 114.678 194.275 114.12 194.325 113.566C194.375 113.012 194.547 112.476 194.826 111.996C195.106 111.516 195.488 111.102 195.945 110.785L189.891 80.7051L196.577 82.8523L201.423 111.948C201.904 112.751 202.074 113.702 201.901 114.622C201.728 115.542 201.223 116.367 200.483 116.939C199.742 117.512 198.818 117.793 197.884 117.73C196.95 117.666 196.072 117.262 195.416 116.594Z" fill="#FFB6B6"/>
<path d="M183.75 40.4809L187.898 37.3486C187.898 37.3486 191.557 37.0894 192.205 43.6907C192.853 50.2919 196.911 75.6275 196.911 75.6275L203.259 105.036L194.472 106.965L187.673 75.2283L180.868 53.3328L183.75 40.4809Z" fill="#E6E6E6"/>
<path d="M147.947 67.8632C149.244 67.8632 150.295 66.8116 150.295 65.5143C150.295 64.217 149.244 63.1654 147.947 63.1654C146.65 63.1654 145.599 64.217 145.599 65.5143C145.599 66.8116 146.65 67.8632 147.947 67.8632Z" fill="#F9A826"/>
<path d="M73.0668 225.255L77.9605 225.255L80.2888 206.374L73.066 206.374L73.0668 225.255Z" fill="#FFB6B6"/>
<path d="M71.8185 223.657L73.196 223.657L78.5737 221.469L81.456 223.656C83.0848 223.656 84.6473 224.304 85.7991 225.456C86.9509 226.608 87.598 228.17 87.5981 229.8V229.999L71.8188 230L71.8185 223.657Z" fill="#2F2E41"/>
<path d="M92.0308 222.17L96.8045 223.248L103.233 205.344L96.1878 203.753L92.0308 222.17Z" fill="#FFB6B6"/>
<path d="M91.1652 220.336L92.5088 220.64L98.2362 219.691L100.566 222.459L100.566 222.459C102.155 222.818 103.536 223.794 104.406 225.172C105.276 226.549 105.563 228.216 105.204 229.805L105.16 230L89.7686 226.524L91.1652 220.336Z" fill="#2F2E41"/>
<path d="M64.1079 128.133L68.5332 177.728C68.5332 177.728 66.8751 207.502 72.2254 217.979H79.9849L83.8268 175.008L84.3092 146.166L100.945 170.499L90.349 217.277L99.8991 218.131L117.093 167.366L98.2033 119.711L64.1079 128.133Z" fill="#2F2E41"/>
<path d="M68.7426 49.1548C75.0455 49.1548 80.155 44.0438 80.155 37.739C80.155 31.4343 75.0455 26.3232 68.7426 26.3232C62.4397 26.3232 57.3301 31.4343 57.3301 37.739C57.3301 44.0438 62.4397 49.1548 68.7426 49.1548Z" fill="#FFB8B8"/>
<path d="M88.8048 60.0335L79.4421 56.015L74.8843 51.1793L63.4983 53.0162L60.4774 58.1975L50.6981 67.2934L62.1557 119.115L61.8088 130.433C61.8088 130.433 69.142 133.735 100.945 126.132C101.326 126.041 100.528 125.641 100.528 125.641L88.8048 60.0335Z" fill="#3F3D56"/>
<path d="M56.8754 44.2166C56.7959 44.108 56.7171 43.9986 56.6392 43.8882C56.6078 43.9545 56.5829 44.023 56.547 44.0877L56.8754 44.2166Z" fill="#2F2E41"/>
<path d="M80.0949 29.3888C79.3321 27.7265 77.9719 26.4121 76.2847 25.7069C74.6124 25.0322 72.7435 25.0338 71.0724 25.7114C69.5636 24.7579 67.8873 24.002 66.1218 23.9084C64.3564 23.8147 62.4898 24.4699 61.4018 25.9121C61.1589 26.2928 60.8829 26.6514 60.5772 26.9837C59.7026 27.7938 58.3736 27.677 57.2112 27.5113C57.7326 27.9583 58.254 28.4053 58.7757 28.8523C58.1446 29.0172 57.5134 29.1821 56.8822 29.347C57.6187 29.7938 58.3552 30.2407 59.0916 30.6875C56.9535 31.9712 55.9817 34.7731 56.2384 37.3178C56.4813 39.727 57.6441 41.93 59.0341 43.8882C59.5886 42.7177 59.4692 41.3171 59.46 39.9988C59.4504 38.6059 59.6968 37.0241 60.8126 36.2457C61.5653 35.7205 62.5332 35.6971 63.4409 35.7021C68.0194 35.7272 72.5927 36.0128 77.1388 36.5575C77.7557 36.5842 78.3571 36.7587 78.8926 37.0663C79.8979 37.7523 80.0937 39.1681 80.1947 40.4102C80.7258 38.3593 80.9858 36.2476 80.9679 34.1292C81.0126 32.5053 80.7152 30.8902 80.0949 29.3888Z" fill="#2F2E41"/>
<path d="M83.6481 162.899C93.5684 162.899 101.61 154.855 101.61 144.931C101.61 135.008 93.5684 126.964 83.6481 126.964C73.7277 126.964 65.6857 135.008 65.6857 144.931C65.6857 154.855 73.7277 162.899 83.6481 162.899Z" fill="white"/>
<path d="M83.648 126.564C82.7247 126.565 81.8027 126.634 80.8897 126.772C80.4227 126.84 79.9678 126.928 79.5166 127.036C76.2029 127.8 73.1665 129.47 70.7463 131.859C68.3261 134.249 66.6173 137.264 65.8105 140.569C65.0036 143.873 65.1305 147.337 66.177 150.574C67.2235 153.81 69.1484 156.692 71.737 158.898C72.0444 159.158 72.3556 159.409 72.679 159.649C75.0093 161.387 77.7189 162.546 80.5848 163.032C83.4508 163.518 86.391 163.316 89.1637 162.443C91.9363 161.57 94.4621 160.051 96.5332 158.011C98.6042 155.971 100.161 153.468 101.076 150.708C101.991 147.948 102.238 145.01 101.796 142.136C101.354 139.263 100.237 136.535 98.5351 134.177C96.8334 131.82 94.5965 129.901 92.0083 128.577C89.4201 127.254 86.5548 126.564 83.648 126.564ZM83.648 162.5C79.9135 162.504 76.2761 161.31 73.2697 159.094C72.9425 158.854 72.6271 158.607 72.3198 158.343C69.7978 156.215 67.9265 153.419 66.9205 150.276C65.9145 147.133 65.8146 143.769 66.6322 140.572C67.4498 137.374 69.1518 134.472 71.543 132.198C73.9341 129.924 76.9177 128.37 80.1514 127.714C80.5983 127.623 81.0455 127.551 81.5006 127.495C82.213 127.406 82.9302 127.362 83.648 127.363C88.3061 127.363 92.7733 129.214 96.0671 132.509C99.3608 135.803 101.211 140.272 101.211 144.931C101.211 149.591 99.3608 154.059 96.0671 157.354C92.7733 160.649 88.3061 162.5 83.648 162.5Z" fill="#3F3D56"/>
<path d="M74.8377 141.338H92.4583C93.1039 141.338 93.6271 140.814 93.6271 140.169V140.111C93.6271 139.466 93.1039 138.942 92.4583 138.942H74.8377C74.1922 138.942 73.6689 139.466 73.6689 140.111V140.169C73.6689 140.814 74.1922 141.338 74.8377 141.338Z" fill="#F9A826"/>
<path d="M74.8377 146.129H92.4583C93.1039 146.129 93.6271 145.606 93.6271 144.96V144.903C93.6271 144.257 93.1039 143.734 92.4583 143.734H74.8377C74.1922 143.734 73.6689 144.257 73.6689 144.903V144.96C73.6689 145.606 74.1922 146.129 74.8377 146.129Z" fill="#F9A826"/>
<path d="M74.8377 150.921H92.4583C93.1039 150.921 93.6271 150.397 93.6271 149.751V149.694C93.6271 149.048 93.1039 148.525 92.4583 148.525H74.8377C74.1922 148.525 73.6689 149.048 73.6689 149.694V149.751C73.6689 150.397 74.1922 150.921 74.8377 150.921Z" fill="#F9A826"/>
<path d="M284.608 224.646L279.476 224.645L277.035 204.847L284.609 204.848L284.608 224.646Z" fill="#9E616A"/>
<path d="M260.332 224.646L255.201 224.645L252.759 204.847L260.333 204.848L260.332 224.646Z" fill="#9E616A"/>
<path d="M260.512 230L244.733 229.999V229.8C244.733 228.17 245.38 226.608 246.532 225.456C247.684 224.304 249.246 223.656 250.875 223.656H250.875L253.758 221.469L259.135 223.657L260.513 223.657L260.512 230Z" fill="#2F2E41"/>
<path d="M285.447 230L269.667 229.999V229.8C269.668 228.17 270.315 226.608 271.466 225.456C272.618 224.304 274.18 223.656 275.809 223.656H275.81L278.692 221.469L284.07 223.657L285.447 223.657L285.447 230Z" fill="#2F2E41"/>
<path d="M255.298 107.474L247.5 154.973L249.622 162.052L246.837 167.065L250.927 211.09L249.267 214.746L253.905 217.608H263.344L263.845 177.751L266.176 171.899V168.674L270.922 144.37L271.796 178.406L273.177 184.267L272.017 188.44L273.532 191.364L277.557 218.476H288.141L287.322 212.169C288.244 211.702 288.985 210.942 289.428 210.008C289.871 209.074 289.991 208.019 289.769 207.01L289.162 204.245L290.543 196.071L293.058 150.465L292.349 113.667L279.968 104.197L255.298 107.474Z" fill="#2F2E41"/>
<path d="M273.177 46.4788C278.607 46.4788 283.01 42.0751 283.01 36.643C283.01 31.2108 278.607 26.8071 273.177 26.8071C267.746 26.8071 263.344 31.2108 263.344 36.643C263.344 42.0751 267.746 46.4788 273.177 46.4788Z" fill="#9E616A"/>
<path d="M251.693 126.323C252.121 125.881 252.446 125.35 252.647 124.768C252.848 124.186 252.919 123.568 252.854 122.956C252.79 122.343 252.592 121.753 252.275 121.225C251.958 120.698 251.529 120.246 251.019 119.903L254.843 105.439L247.476 107.917L244.974 121.273C244.454 122.169 244.28 123.224 244.486 124.24C244.692 125.256 245.263 126.16 246.091 126.783C246.919 127.405 247.947 127.703 248.979 127.618C250.012 127.533 250.977 127.072 251.693 126.323Z" fill="#9E616A"/>
<path d="M255.717 56.8787L254.136 56.5505L252.787 57.2974C252.787 57.2974 249.02 62.3215 249.02 66.9268C249.02 71.5322 244.416 115.911 244.416 115.911L252.787 119.68L259.484 84.9297L255.717 56.8787Z" fill="#E6E6E6"/>
<path d="M281.788 29.4315C281.788 29.4315 284.359 24.5136 278.701 24.0665C278.701 24.0665 273.878 19.6897 268.961 23.2664C268.961 23.2664 266.28 23.2664 264.813 26.3019C264.813 26.3019 262.704 25.5018 262.241 27.6432C262.241 27.6432 260.697 32.114 262.241 36.1377C263.784 40.1615 264.297 40.6086 264.297 40.6086C264.297 40.6086 261.761 32.1726 267.933 31.7255C274.106 31.2784 281.014 27.4196 281.528 32.3375C282.043 37.2554 282.817 38.4672 282.817 38.4672C282.817 38.4672 287.703 31.4434 281.788 29.4315Z" fill="#2F2E41"/>
<path d="M317.707 167.065C316.965 167.066 316.248 166.792 315.695 166.297L285.938 139.8C285.338 139.265 284.975 138.514 284.928 137.711C284.882 136.909 285.155 136.121 285.689 135.52L304.752 114.098C305.287 113.498 306.038 113.135 306.84 113.088C307.643 113.042 308.431 113.315 309.032 113.849L338.789 140.346C339.39 140.881 339.753 141.632 339.8 142.435C339.847 143.238 339.573 144.026 339.038 144.627L319.975 166.048C319.711 166.347 319.391 166.59 319.032 166.763C318.674 166.937 318.284 167.037 317.887 167.059C317.826 167.063 317.767 167.065 317.707 167.065Z" fill="white"/>
<path d="M317.706 167.26C316.917 167.261 316.154 166.97 315.566 166.443L285.808 139.946C285.17 139.376 284.784 138.577 284.734 137.723C284.684 136.868 284.976 136.029 285.543 135.39L304.606 113.968C305.176 113.33 305.975 112.944 306.829 112.894C307.683 112.844 308.522 113.135 309.161 113.703L338.919 140.201C339.558 140.77 339.945 141.569 339.994 142.424C340.044 143.278 339.752 144.117 339.184 144.757L320.12 166.178C319.84 166.495 319.498 166.754 319.117 166.939C318.735 167.124 318.321 167.231 317.898 167.254C317.834 167.258 317.77 167.26 317.706 167.26ZM307.017 113.667C306.672 113.667 306.33 113.739 306.015 113.881C305.7 114.022 305.418 114.228 305.189 114.487L286.126 135.908C285.695 136.393 285.474 137.03 285.512 137.677C285.549 138.325 285.842 138.932 286.326 139.364L316.084 165.861C316.324 166.074 316.604 166.239 316.907 166.344C317.211 166.45 317.532 166.495 317.853 166.476C318.174 166.457 318.488 166.376 318.777 166.236C319.066 166.096 319.325 165.9 319.538 165.66L338.602 144.238C339.033 143.753 339.254 143.117 339.217 142.469C339.179 141.821 338.886 141.214 338.401 140.783L308.643 114.286C308.196 113.887 307.617 113.666 307.017 113.667Z" fill="#3F3D56"/>
<path d="M328.498 146.777C328.176 146.778 327.866 146.66 327.626 146.446L304.267 125.647C304.138 125.532 304.033 125.393 303.957 125.238C303.882 125.083 303.837 124.914 303.827 124.742C303.817 124.57 303.841 124.397 303.897 124.234C303.954 124.071 304.042 123.92 304.157 123.791C304.271 123.662 304.411 123.557 304.566 123.482C304.721 123.407 304.89 123.364 305.062 123.354C305.235 123.344 305.407 123.368 305.57 123.426C305.733 123.483 305.883 123.571 306.012 123.687L329.371 144.486C329.569 144.663 329.709 144.896 329.773 145.154C329.836 145.413 329.819 145.684 329.724 145.933C329.629 146.181 329.461 146.395 329.242 146.546C329.023 146.697 328.763 146.778 328.498 146.777Z" fill="#F9A826"/>
<path d="M324.042 151.784C323.721 151.784 323.41 151.666 323.171 151.452L299.812 130.653C299.683 130.539 299.579 130.4 299.504 130.245C299.429 130.09 299.385 129.921 299.375 129.749C299.365 129.577 299.389 129.405 299.445 129.242C299.502 129.08 299.59 128.93 299.705 128.801C299.819 128.672 299.958 128.567 300.113 128.492C300.268 128.417 300.436 128.374 300.608 128.364C300.78 128.354 300.952 128.378 301.115 128.434C301.278 128.491 301.428 128.579 301.556 128.693L324.915 149.493C325.114 149.67 325.254 149.903 325.317 150.161C325.38 150.419 325.363 150.691 325.269 150.94C325.174 151.188 325.006 151.402 324.787 151.553C324.568 151.704 324.308 151.784 324.042 151.784Z" fill="#F9A826"/>
<path d="M319.587 156.791C319.265 156.792 318.955 156.673 318.715 156.459L295.356 135.66C295.227 135.546 295.122 135.407 295.047 135.252C294.972 135.097 294.928 134.928 294.918 134.756C294.908 134.584 294.932 134.412 294.988 134.249C295.045 134.086 295.133 133.936 295.248 133.807C295.362 133.678 295.501 133.573 295.656 133.498C295.812 133.423 295.98 133.379 296.152 133.369C296.324 133.36 296.497 133.384 296.659 133.44C296.822 133.497 296.972 133.586 297.101 133.7L320.459 154.5C320.658 154.676 320.798 154.91 320.861 155.168C320.925 155.426 320.908 155.698 320.813 155.946C320.718 156.195 320.55 156.409 320.331 156.56C320.112 156.711 319.853 156.791 319.587 156.791Z" fill="#F9A826"/>
<path d="M292.874 127.177C292.574 126.639 292.396 126.043 292.352 125.429C292.307 124.815 292.398 124.199 292.618 123.624C292.837 123.049 293.18 122.529 293.622 122.101C294.064 121.673 294.595 121.347 295.177 121.146L295.202 106.185L301.683 110.476L300.665 124.025C300.938 125.025 300.834 126.09 300.374 127.019C299.914 127.947 299.129 128.674 298.169 129.063C297.209 129.451 296.139 129.474 295.163 129.126C294.187 128.779 293.373 128.085 292.874 127.177Z" fill="#9E616A"/>
<path d="M293.473 60.9785L296.369 58.1868L298.496 59.7225C298.496 59.7225 300.588 62.2345 302.263 69.7706C303.937 77.3067 302.263 118.755 302.263 118.755L293.055 117.499L294.31 95.7283L290.543 77.3067L293.473 60.9785Z" fill="#E6E6E6"/>
<path d="M297.749 58.8678L287.993 54.2066L281.37 48.0617L269.293 47.9713L265.397 53.0375L255.111 56.5324L256.826 92.0086L255.657 94.7365C255.657 94.7365 256.471 95.4723 256.843 95.8839C257.215 96.2954 256.329 99.7406 256.329 99.7406L255.83 103.489L257.215 104.479L255.414 106.608L254.967 109.963C254.967 109.963 286.413 102.145 292.355 115.097C292.669 115.781 291.896 109.093 291.896 109.093L291.122 104.197L291.889 99.8028L293.058 98.6337L291.098 96.6728L292.355 87.3689L297.749 58.8678Z" fill="#3F3D56"/>
<path d="M76.5205 137.516C76.7626 136.901 76.867 136.24 76.8263 135.581C76.7856 134.921 76.6008 134.278 76.2849 133.698C75.9691 133.118 75.5298 132.613 74.9981 132.221C74.4664 131.829 73.8552 131.558 73.2075 131.428L71.0405 115.51L64.7573 121.004L67.7784 135.277C67.6315 136.38 67.8942 137.499 68.5166 138.421C69.139 139.343 70.078 140.005 71.1556 140.281C72.2331 140.556 73.3745 140.427 74.3632 139.918C75.352 139.408 76.1196 138.554 76.5205 137.516Z" fill="#FFB8B8"/>
<path d="M51.9038 67.0024L50.2007 67.3287L49.1713 68.6251C49.1713 68.6251 47.5059 75.1592 49.403 79.7254C51.3002 84.2917 65.0166 130.192 65.0166 130.192L74.8686 130.478L67.1939 93.2626L51.9038 67.0024Z" fill="#3F3D56"/>
<path d="M90.7434 135.181C90.2896 134.7 89.9465 134.127 89.7384 133.499C89.5303 132.872 89.4623 132.207 89.539 131.55C89.6157 130.894 89.8354 130.263 90.1825 129.7C90.5297 129.138 90.9958 128.659 91.5482 128.296L87.6259 112.718L95.5038 115.473L98.0208 129.843C98.5682 130.812 98.7414 131.948 98.5075 133.035C98.2737 134.123 97.6491 135.087 96.7521 135.745C95.8551 136.403 94.7479 136.709 93.6405 136.605C92.5331 136.501 91.5023 135.994 90.7434 135.181Z" fill="#FFB8B8"/>
<path d="M87.3014 60.571L89.0033 60.2386L90.4418 61.0576C90.4418 61.0576 94.4226 66.4994 94.3643 71.4439C94.3061 76.3885 98.6879 124.094 98.6879 124.094L89.6527 128.034L82.9023 90.6403L87.3014 60.571Z" fill="#3F3D56"/>
</g>
<defs>
<clipPath id="clip0_33_6">
<rect width="340" height="230" fill="white"/>
</clipPath>
</defs>
</svg>
