<svg width="340" height="230" viewBox="0 0 340 230" fill="none" xmlns="http://www.w3.org/2000/svg">
<g clip-path="url(#clip0_34_97)">
<path d="M5.2302 211.832C7.45206 218.55 13.9396 223.253 20.7069 227.248C21.6518 227.806 22.5971 228.351 23.5426 228.884C23.549 228.886 23.5556 228.891 23.562 228.894C23.6075 228.919 23.6531 228.945 23.6955 228.97C23.8906 229.08 24.0858 229.19 24.2794 229.298L24.1731 229.34C24.1731 229.34 24.0687 229.388 24.1829 229.347C24.2169 229.335 24.2525 229.324 24.2864 229.311C28.2178 227.929 32.219 226.445 35.2319 223.856C38.3572 221.168 40.1837 216.951 38.4913 213.419C38.2689 212.956 37.9879 212.517 37.6536 212.108C37.5163 211.937 37.3685 211.773 37.2145 211.613C36.281 210.619 35.0609 209.861 33.6796 209.415C32.2983 208.969 30.8058 208.852 29.3553 209.076C27.9049 209.3 26.549 209.856 25.4271 210.688C24.3052 211.52 23.4577 212.597 22.9717 213.809C22.4746 209.774 26.2916 206.394 29.965 203.9C33.6399 201.408 37.8157 198.694 38.5262 194.681C38.923 192.449 38.0323 190.285 36.4098 188.548C36.3596 188.496 36.3094 188.443 36.2577 188.391C34.2827 186.369 31.5049 185.07 28.4791 184.754C22.844 184.244 17.3704 186.843 13.2766 190.259C6.68767 195.753 2.70439 204.193 5.2302 211.832Z" fill="#F1F1F1"/>
<path d="M15.8222 203.044C14.7407 204.511 13.9103 206.107 13.3574 207.782C12.8898 209.28 12.6816 210.83 12.7399 212.381C12.8908 215.573 13.9188 218.687 15.7376 221.46C17.1077 223.564 18.7774 225.509 20.707 227.248C21.6519 227.806 22.5971 228.351 23.5426 228.884C23.549 228.886 23.5556 228.891 23.5621 228.894C23.6075 228.919 23.6531 228.945 23.6955 228.97C23.8906 229.08 24.0858 229.19 24.2794 229.298C24.2794 229.298 24.0687 229.388 24.1829 229.347C24.2169 229.335 24.2525 229.324 24.2864 229.311C23.934 226.793 24.2792 224.239 25.293 221.861C26.3068 219.483 27.9597 217.352 30.1132 215.645C32.2718 213.965 34.8555 212.753 37.6536 212.109C37.5163 211.937 37.3685 211.773 37.2145 211.613C36.1339 211.877 35.0821 212.224 34.0715 212.649C30.4591 214.161 27.5012 216.647 25.6356 219.738C23.9615 222.546 23.241 225.711 23.5587 228.862C23.3971 228.735 23.2354 228.604 23.0786 228.475C20.0911 226.048 17.4377 223.261 15.6419 220.045C14.084 217.322 13.3183 214.306 13.4123 211.264C13.5588 207.947 15.0751 204.874 17.2705 202.199C19.6767 199.346 22.5192 196.792 25.7191 194.61C28.9439 192.359 32.4726 190.46 36.2266 188.956C36.3112 188.921 36.3775 188.86 36.4116 188.784C36.4457 188.708 36.4451 188.624 36.4098 188.548C36.3848 188.481 36.3301 188.424 36.2577 188.392C36.2204 188.378 36.18 188.371 36.1395 188.373C36.0989 188.374 36.0593 188.383 36.0236 188.4C35.5601 188.586 35.0998 188.775 34.6432 188.971C30.8403 190.61 27.2856 192.654 24.0608 195.056C20.9459 197.371 18.0133 200.015 15.8222 203.044Z" fill="white"/>
<path d="M104.786 224.245H110.69L113.499 204.396L104.785 204.396L104.786 224.245Z" fill="#FFB7B7"/>
<path d="M103.28 222.565L114.907 222.565H114.908C116.873 222.565 118.757 223.245 120.147 224.456C121.536 225.667 122.317 227.31 122.317 229.023V229.233L103.281 229.233L103.28 222.565Z" fill="#2F2E41"/>
<path d="M72.8206 224.245H78.7247L81.5332 204.396L72.8197 204.396L72.8206 224.245Z" fill="#FFB7B7"/>
<path d="M71.3147 222.565L82.9416 222.565H82.9421C84.9072 222.565 86.7917 223.245 88.1813 224.456C89.5708 225.667 90.3515 227.31 90.3516 229.023V229.233L71.3151 229.233L71.3147 222.565Z" fill="#2F2E41"/>
<path d="M70.4154 134.285V186.693L71.9375 220.526H84.4952L88.6815 156.84L97.0534 183.044L102.381 219.862L117.602 219.199L107.328 134.285H70.4154Z" fill="#2F2E41"/>
<path d="M85.0137 87.1847C90.0577 87.1847 94.1467 83.6206 94.1467 79.2241C94.1467 74.8275 90.0577 71.2634 85.0137 71.2634C79.9696 71.2634 75.8806 74.8275 75.8806 79.2241C75.8806 83.6206 79.9696 87.1847 85.0137 87.1847Z" fill="#FFB8B8"/>
<path d="M81.2188 89.2588L78.7872 91.4967L76.5038 136.275L103.523 135.612L97.0534 96.4724L91.3453 91.7045L88.4489 89.2588H81.2188Z" fill="#F9A826"/>
<path d="M76.8844 94.1502L78.9353 91.2489L79.5482 97.4672C79.5482 97.4672 84.4953 111.398 84.1148 123.671C83.7342 135.944 86.0175 164.801 82.9731 165.133C79.9288 165.464 66.9903 166.128 66.9903 163.806C66.9903 161.484 66.2292 99.789 66.2292 99.789L76.8844 94.1502Z" fill="#2F2E41"/>
<path d="M90.7322 91.2489L95.9116 94.8136L107.328 98.4622C107.328 98.4622 107.328 140.919 109.611 150.87C111.894 160.821 116.08 161.816 110.753 162.147C105.425 162.479 105.806 160.821 105.806 160.821C105.806 160.821 90.2034 118.364 90.9645 107.75C91.7256 97.1355 89.9711 91.2489 90.7322 91.2489Z" fill="#2F2E41"/>
<path d="M76.3733 81.7146C76.3733 81.7146 77.1492 80.5268 76.9688 76.5588C76.7884 72.5908 83.7207 74.835 89.5133 74.4565C95.306 74.078 94.0798 81.0812 94.0798 81.0812C94.0798 81.0812 94.4977 80.6649 95.3924 77.2849C96.2871 73.905 94.2556 70.5367 94.2556 70.5367C93.6573 66.9849 90.4328 68.1233 90.4328 68.1233C91.9857 68.6502 91.6875 69.7769 91.6875 69.7769C90.373 67.7681 87.1486 68.9064 87.1486 68.9064C82.848 66.5542 78.4895 69.6518 78.4895 69.6518C73.2943 70.6795 76.3411 74.2807 76.3411 74.2807C71.1164 76.5821 76.3733 81.7146 76.3733 81.7146Z" fill="#2F2E41"/>
<path d="M67.0031 159.01C67.3902 158.653 67.6829 158.227 67.8606 157.761C68.0382 157.295 68.0966 156.801 68.0314 156.313C67.9663 155.826 67.7793 155.356 67.4836 154.939C67.1879 154.521 66.7907 154.165 66.3199 153.895L67.9651 146.357L62.9532 144.368L60.8014 155.042C60.3343 155.761 60.1861 156.605 60.385 157.413C60.5839 158.221 61.116 158.938 61.8804 159.427C62.6448 159.916 63.5886 160.144 64.5327 160.067C65.4768 159.99 66.3558 159.614 67.0031 159.01Z" fill="#FFB7B7"/>
<path d="M68.132 99.789L67.1215 99.3168C67.1215 99.3168 61.6627 101.116 62.0433 102.443C62.4238 103.769 58.9989 150.206 60.1406 151.865C61.2822 153.523 70.4152 152.196 70.4152 152.196L68.132 99.789Z" fill="#2F2E41"/>
<path d="M111.574 155.883C111.134 155.577 110.777 155.19 110.527 154.75C110.277 154.31 110.141 153.828 110.128 153.337C110.115 152.846 110.226 152.359 110.452 151.909C110.679 151.46 111.016 151.059 111.439 150.736L108.613 143.468L113.261 140.894L117.087 151.206C117.663 151.862 117.944 152.68 117.875 153.504C117.807 154.328 117.393 155.102 116.714 155.679C116.034 156.255 115.136 156.594 114.189 156.632C113.241 156.67 112.311 156.403 111.574 155.883Z" fill="#FFB7B7"/>
<path d="M107.113 149.547C107.113 149.547 116.369 149.76 117.237 147.98C118.104 146.199 107.341 100.622 107.507 99.262C107.673 97.9021 101.981 96.7788 101.981 96.7788L101.056 97.3683L107.113 149.547Z" fill="#2F2E41"/>
<path d="M167.999 230H0.439787C0.323148 230 0.211286 229.96 0.128809 229.888C0.0463329 229.816 -1.43051e-06 229.718 -1.43051e-06 229.617C-1.43051e-06 229.515 0.0463329 229.418 0.128809 229.346C0.211286 229.274 0.323148 229.233 0.439787 229.233H167.999C168.116 229.233 168.228 229.274 168.31 229.346C168.393 229.418 168.439 229.515 168.439 229.617C168.439 229.718 168.393 229.816 168.31 229.888C168.228 229.96 168.116 230 167.999 230Z" fill="#CBCBCB"/>
<path d="M340 118.067H185.345V34.1432H340V118.067ZM188.943 114.93H336.402V37.2797H188.943V114.93Z" fill="#E5E5E5"/>
<path d="M338.201 35.7115H187.144V116.498H338.201V35.7115Z" fill="white"/>
<path d="M338.201 56.1866V51.2263H317.246V35.7115H311.555V51.2263H274.249V35.7115H268.558V51.2263H211.017V35.7115H205.326V51.2263H187.144V56.1866H205.326V75.4767H187.144V80.437H205.326V101.105H187.144V106.065H235.994V116.498H241.684V106.065H268.558V116.498H274.249V106.065H338.201V101.105H274.249V80.437H338.201V75.4767H317.246V56.1866L338.201 56.1866ZM268.558 56.1866V62.2492H211.017V56.1866H268.558ZM211.017 67.2095H268.558V75.4767H211.017V67.2095ZM211.017 101.105V80.437H235.994V101.105L211.017 101.105ZM268.558 101.105H241.684V80.437H268.558V101.105ZM311.555 75.4767H274.249V56.1866H311.555V75.4767Z" fill="#E6E6E6"/>
<path d="M298.857 23.7848C298.857 36.9208 271.569 66.1839 271.569 66.1839C271.569 66.1839 244.282 36.9208 244.282 23.7848C244.282 17.4767 247.156 11.4269 252.274 6.96642C257.391 2.5059 264.332 0 271.569 0C278.806 0 285.747 2.5059 290.865 6.96642C295.982 11.4269 298.857 17.4767 298.857 23.7848Z" fill="#F9A826"/>
<path d="M284.044 22.7508C284.044 24.9013 283.312 27.0034 281.942 28.7915C280.571 30.5796 278.623 31.9732 276.343 32.7962C274.064 33.6191 271.556 33.8345 269.136 33.4149C266.716 32.9954 264.493 31.9598 262.749 30.4392C261.004 28.9186 259.816 26.9812 259.335 24.872C258.854 22.7628 259.101 20.5766 260.045 18.5898C260.989 16.603 262.588 14.9049 264.639 13.7101C266.691 12.5154 269.102 11.8777 271.57 11.8777C273.208 11.877 274.83 12.1578 276.344 12.704C277.858 13.2502 279.233 14.0511 280.392 15.0609C281.551 16.0707 282.469 17.2696 283.096 18.589C283.723 19.9085 284.045 21.3227 284.044 22.7508Z" fill="white"/>
<path d="M271.569 83.3504C275.632 83.3504 278.925 80.4798 278.925 76.9388C278.925 73.3978 275.632 70.5272 271.569 70.5272C267.507 70.5272 264.213 73.3978 264.213 76.9388C264.213 80.4798 267.507 83.3504 271.569 83.3504Z" fill="#F9A826"/>
</g>
<defs>
<clipPath id="clip0_34_97">
<rect width="340" height="230" fill="white"/>
</clipPath>
</defs>
</svg>
